<svg width="23" height="22" viewBox="0 0 23 22" fill="none" xmlns="http://www.w3.org/2000/svg">
<path d="M8.2352 3.00008L10.8418 0.393483C11.2323 0.00295344 11.8655 0.00295344 12.256 0.393483L14.8626 3.00008H18.5489C19.1012 3.00008 19.5489 3.4478 19.5489 4.00008V7.68637L22.1555 10.293C22.546 10.6835 22.546 11.3167 22.1555 11.7072L19.5489 14.3138V18.0001C19.5489 18.5524 19.1012 19.0001 18.5489 19.0001H14.8626L12.256 21.6067C11.8655 21.9972 11.2323 21.9972 10.8418 21.6067L8.2352 19.0001H4.54891C3.99663 19.0001 3.54891 18.5524 3.54891 18.0001V14.3138L0.942312 11.7072C0.551782 11.3167 0.551782 10.6835 0.942312 10.293L3.54891 7.68637V4.00008C3.54891 3.4478 3.99663 3.00008 4.54891 3.00008H8.2352ZM11.5489 14.0001C13.2057 14.0001 14.5489 12.6569 14.5489 11.0001C14.5489 9.3432 13.2057 8.00008 11.5489 8.00008C9.89203 8.00008 8.54891 9.3432 8.54891 11.0001C8.54891 12.6569 9.89203 14.0001 11.5489 14.0001Z" fill="#727272"/>
</svg>
