<svg width="13" height="13" viewBox="0 0 13 13" fill="none" xmlns="http://www.w3.org/2000/svg">
<path d="M3.63215 0.583374V1.75004H1.29882C0.976655 1.75004 0.715485 2.01121 0.715485 2.33337V11.6667C0.715485 11.9889 0.976655 12.25 1.29882 12.25H5.82233C5.1819 11.4511 4.79882 10.437 4.79882 9.33337C4.79882 6.75603 6.88814 4.66671 9.46548 4.66671C10.5691 4.66671 11.5832 5.04979 12.3822 5.69024V2.33337C12.3822 2.01121 12.121 1.75004 11.7988 1.75004H9.46548V0.583374H8.29882V1.75004H4.79882V0.583374H3.63215ZM12.9655 9.33337C12.9655 11.2664 11.3985 12.8334 9.46548 12.8334C7.53249 12.8334 5.96548 11.2664 5.96548 9.33337C5.96548 7.40038 7.53249 5.83337 9.46548 5.83337C11.3985 5.83337 12.9655 7.40038 12.9655 9.33337ZM8.88215 7.00004V9.57499L10.2197 10.9125L11.0446 10.0876L10.0488 9.09176V7.00004H8.88215Z" fill="#868686"/>
</svg>
