<svg width="25" height="24" viewBox="0 0 25 24" fill="none" xmlns="http://www.w3.org/2000/svg">
<path d="M14.9173 4.39807L11.433 10.433L13.1651 11.433L16.6494 5.39807C20.8188 8.17002 22.9546 12.4771 21.2093 15.5C19.3491 18.7221 14.0205 18.8551 9.2991 16.1292C4.57773 13.4033 2.02859 8.72208 3.88885 5.50001C5.6341 2.47715 10.4321 2.17321 14.9173 4.39807ZM16.433 1.77277L18.1651 2.77277L16.6651 5.37084L14.933 4.37084L16.433 1.77277ZM7.28116 20H17.5491V22H5.56644C5.48891 22.0014 5.41077 21.9938 5.33364 21.9768C5.31908 21.9735 5.30463 21.97 5.2903 21.9662C5.20773 21.944 5.12667 21.9108 5.04911 21.866C5.01989 21.8492 4.99184 21.831 4.96499 21.8118C4.85044 21.7292 4.75407 21.623 4.68303 21.5003C4.61211 21.3772 4.56822 21.2404 4.55401 21.0997C4.55329 21.0924 4.55264 21.085 4.55208 21.0777C4.53669 20.883 4.57807 20.6819 4.68308 20.5L6.93308 16.6029L8.66513 17.6029L7.28116 20Z" fill="#727272"/>
</svg>
