<svg width="19" height="18" viewBox="0 0 19 18" fill="none" xmlns="http://www.w3.org/2000/svg">
<path d="M12.077 2.57996L14.4853 6.75146L17.0525 6.75159V8.25161L16.1773 8.25146L15.6098 15.0639C15.5774 15.4526 15.2525 15.7516 14.8624 15.7516H4.24263C3.85256 15.7516 3.52761 15.4526 3.49521 15.0639L2.92702 8.25146L2.05252 8.25161V6.75159L4.61902 6.75146L7.02801 2.57996L8.32704 3.32996L6.35152 6.75146H12.7528L10.778 3.32996L12.077 2.57996ZM10.3025 9.75161H8.80254V12.7516H10.3025V9.75161ZM7.30252 9.75161H5.80252V12.7516H7.30252V9.75161ZM13.3025 9.75161H11.8025V12.7516H13.3025V9.75161Z" fill="#868686"/>
</svg>
